<svg width="233" height="64" viewBox="0 0 233 64" fill="none" xmlns="http://www.w3.org/2000/svg">
<path d="M0 20.5967C0 9.93241 8.64511 1.28729 19.3094 1.28729H233V43.768C233 54.4322 224.355 63.0773 213.691 63.0773H0V20.5967Z" fill="url(#paint0_linear_26_15)"/>
<path d="M138.384 8.36703H167.992V37.9754C167.991 47.2176 160.499 54.7096 151.257 54.7098H121.649V25.1024C121.649 15.86 129.142 8.36703 138.384 8.36703Z" stroke="white" stroke-width="5.14917"/>
<path d="M166.061 30.8947H183.918C183.104 32.0618 181.752 32.8263 180.221 32.8263H162.363C163.178 31.6591 164.53 30.8947 166.061 30.8947Z" stroke="white" stroke-width="3.54006"/>
<path d="M81.7433 8.36703H111.351V37.9754C111.351 47.2176 103.858 54.7096 94.6163 54.7098H65.0079V25.1024C65.0079 15.86 72.5009 8.36703 81.7433 8.36703Z" stroke="white" stroke-width="5.14917"/>
<path d="M25.1024 8.36703H54.7098V37.9754C54.7096 47.2176 47.2176 54.7096 37.9754 54.7098H8.36703V25.1024C8.36703 15.86 15.86 8.36703 25.1024 8.36703Z" stroke="white" stroke-width="5.14917"/>
<path d="M195.025 8.36703H224.632V37.9754C224.632 47.2176 217.14 54.7096 207.898 54.7098H178.29V25.1024C178.29 15.86 185.783 8.36703 195.025 8.36703Z" stroke="white" stroke-width="5.14917"/>
<path d="M145.073 44.4119C142.876 44.4119 140.871 43.9725 139.059 43.0937C137.246 42.215 135.804 40.8968 134.733 39.1392C133.662 37.3816 133.14 35.1983 133.168 32.5894C133.195 30.0354 133.731 27.8522 134.774 26.0397C135.845 24.1997 137.287 22.7991 139.1 21.838C140.912 20.8768 142.944 20.3962 145.196 20.3962C147.531 20.3962 149.494 20.8219 151.087 21.6732C152.68 22.4971 153.916 23.5955 154.794 24.9687C155.701 26.3143 156.277 27.7698 156.525 29.3352H150.593C150.455 28.2916 150.057 27.5227 149.398 27.0283C148.766 26.534 148.052 26.2182 147.256 26.0809C146.487 25.9161 145.8 25.8337 145.196 25.8337C143.054 25.8337 141.461 26.3967 140.418 27.5227C139.374 28.6211 138.853 30.159 138.853 32.1363C138.853 34.3058 139.361 35.9948 140.377 37.2031C141.393 38.4114 142.986 39.0156 145.155 39.0156C145.787 39.0156 146.501 38.9332 147.297 38.7684C148.094 38.5762 148.808 38.2055 149.439 37.6562C150.098 37.107 150.497 36.2831 150.634 35.1846H156.607C156.332 36.8049 155.742 38.329 154.836 39.7571C153.929 41.1577 152.666 42.2836 151.046 43.1349C149.453 43.9863 147.462 44.4119 145.073 44.4119Z" fill="white"/>
<path d="M83.777 44H78.01V20.8081H83.777V44ZM92.6336 20.8081H98.4007V44H92.6336V20.8081ZM96.2998 34.5255H80.4816V30.159H96.2998V34.5255Z" fill="white"/>
<path d="M29.0671 44H23.3V20.8081H29.0671V44ZM28.2844 20.8081H33.104C35.7404 20.8081 37.8138 21.4947 39.3242 22.8678C40.8621 24.2135 41.631 26.2457 41.631 28.9644C41.631 31.2712 40.8484 33.0975 39.283 34.4431C37.7177 35.7613 35.658 36.4204 33.104 36.4204H28.3256V32.3835H32.239C33.3924 32.3835 34.381 32.0951 35.2049 31.5184C36.0287 30.9142 36.4407 30.0354 36.4407 28.882C36.4407 27.7012 36.0287 26.8361 35.2049 26.2869C34.4085 25.7101 33.4198 25.4218 32.239 25.4218H28.2844V20.8081Z" fill="white"/>
<path d="M200.849 44.4119C199.53 44.4119 198.24 44.2609 196.976 43.9588C195.713 43.6567 194.573 43.1761 193.557 42.517C192.541 41.8305 191.717 40.9517 191.086 39.8807C190.482 38.8096 190.18 37.5189 190.18 36.0085H195.947C195.947 36.1458 195.974 36.338 196.029 36.5852C196.111 36.8324 196.262 37.107 196.482 37.4091C196.702 37.7111 197.004 37.9995 197.388 38.2741C197.773 38.5487 198.281 38.7822 198.912 38.9744C199.572 39.1392 200.368 39.2216 201.302 39.2216C201.686 39.2216 202.084 39.2078 202.496 39.1804C202.936 39.1255 203.334 39.0431 203.691 38.9332C204.048 38.7959 204.336 38.6037 204.556 38.3565C204.776 38.1093 204.886 37.7798 204.886 37.3679C204.886 36.7912 204.611 36.338 204.062 36.0085C203.54 35.6789 202.84 35.418 201.961 35.2258C201.109 35.0061 200.162 34.7864 199.118 34.5667C198.102 34.347 197.086 34.0724 196.07 33.7429C195.054 33.4133 194.12 32.9739 193.269 32.4247C192.445 31.848 191.8 31.1202 191.333 30.2414C190.894 29.3352 190.715 28.2092 190.797 26.8636C190.907 25.5179 191.374 24.3645 192.198 23.4033C193.022 22.4421 194.189 21.7007 195.699 21.1789C197.21 20.6571 199.022 20.3962 201.137 20.3962C202.84 20.3962 204.432 20.6983 205.915 21.3025C207.426 21.9066 208.648 22.8266 209.582 24.0624C210.543 25.2982 211.023 26.8636 211.023 28.7585H205.462C205.462 28.1268 205.297 27.6188 204.968 27.2343C204.638 26.8224 204.213 26.5203 203.691 26.328C203.169 26.1083 202.62 25.971 202.043 25.9161C201.466 25.8337 200.945 25.7925 200.478 25.7925C199.462 25.7925 198.61 25.9161 197.924 26.1633C197.265 26.4104 196.935 26.891 196.935 27.605C196.935 28.2367 197.21 28.731 197.759 29.088C198.308 29.4175 199.022 29.6922 199.901 29.9119C200.78 30.1041 201.741 30.3101 202.785 30.5298C203.856 30.722 204.913 30.9692 205.957 31.2712C207 31.5733 207.934 31.999 208.758 32.5482C209.609 33.07 210.268 33.7703 210.735 34.6491C211.229 35.5279 211.422 36.6538 211.312 38.027C211.229 39.3726 210.735 40.526 209.829 41.4872C208.95 42.4209 207.742 43.1487 206.204 43.6705C204.693 44.1648 202.908 44.4119 200.849 44.4119Z" fill="white"/>
<defs>
<linearGradient id="paint0_linear_26_15" x1="0" y1="32.1823" x2="233" y2="32.1823" gradientUnits="userSpaceOnUse">
<stop stop-color="#003CFF"/>
<stop offset="1" stop-color="#5580FF"/>
</linearGradient>
</defs>
</svg>
